<svg width="592" height="165" viewBox="0 0 592 165" fill="none" xmlns="http://www.w3.org/2000/svg">
<path fill-rule="evenodd" clip-rule="evenodd" d="M592 0H0V165H592V0ZM571.586 126.452C569.548 119.525 568.597 113.548 568.597 104.312V80.1346C568.597 62.8844 554.607 52.0182 534.233 52.0182C513.723 52.0182 501.363 61.7978 494.164 78.3688L513.859 82.987C516.304 75.5164 521.465 67.3668 531.924 67.2309C538.58 67.0951 544.556 71.0341 546.05 77.6897C515.76 82.5795 496.065 94.2607 496.065 109.609C496.065 119.389 502.178 127.946 516.575 127.946C531.245 127.946 540.481 118.846 546.458 105.534V106.757C546.458 112.597 547.408 121.019 548.902 126.452H571.586ZM546.05 86.6543C544.284 100.237 535.863 112.733 526.898 112.733C521.329 112.733 518.205 108.93 518.205 104.584C518.205 98.8788 524.318 91.4083 546.05 86.6543ZM481.729 104.312C481.729 113.548 482.679 119.525 484.717 126.452H462.034C460.54 121.019 459.589 112.597 459.589 106.757V105.534C453.612 118.846 444.376 127.946 429.707 127.946C415.309 127.946 409.197 119.389 409.197 109.609C409.197 94.2607 428.892 82.5795 459.181 77.6897C457.687 71.0341 451.711 67.0951 445.055 67.2309C434.596 67.3668 429.435 75.5164 426.99 82.987L407.295 78.3688C414.494 61.7978 426.854 52.0182 447.364 52.0182C467.738 52.0182 481.729 62.8844 481.729 80.1346V104.312ZM440.03 112.733C448.994 112.733 457.415 100.237 459.181 86.6543C437.449 91.4083 431.337 98.8788 431.337 104.584C431.337 108.93 434.461 112.733 440.03 112.733ZM396.488 89.5067C396.488 63.1561 385.758 52.0182 369.323 52.0182C360.63 52.0182 351.937 56.3647 346.64 68.4534V53.5123H324.5V126.452H346.64V99.2863C346.64 75.1089 352.48 67.2309 361.445 67.2309C369.187 67.2309 374.349 72.2566 374.349 92.3591V126.452H396.488V89.5067ZM282.454 52.0182C298.889 52.0182 309.62 63.1561 309.62 89.5067V126.452H287.48V92.3591C287.48 72.2566 282.318 67.2309 274.576 67.2309C265.611 67.2309 259.771 75.1089 259.771 99.2863V126.452H237.631V53.5123H259.771V68.4534C265.068 56.3647 273.761 52.0182 282.454 52.0182ZM149.427 89.9142C149.427 108.93 162.195 127.946 187.731 127.946C210.278 127.946 220.329 114.771 223.182 102.818L203.215 98.8788C201.042 107.028 196.695 112.733 187.731 112.733C179.717 112.733 172.79 104.719 171.567 93.5815H224.676C224.268 70.355 212.044 52.0182 187.731 52.0182C162.195 52.0182 149.427 71.0341 149.427 89.9142ZM202.808 81.0854H172.518C174.963 72.7999 180.939 67.2309 187.731 67.2309C195.337 67.2309 199.955 72.664 202.808 81.0854ZM113.853 42.7817V22H137.215V42.7817H113.853ZM114.396 126.452V53.5121H136.536V126.452H114.396ZM104.892 53.512H83.8391L62.3783 118.438L40.9175 53.512H20L44.7207 126.452H80.0359L104.892 53.512Z" fill="white"/>
</svg>
