<svg xmlns="http://www.w3.org/2000/svg" width="647.338" height="144.388" viewBox="0 0 647.338 144.388">
  <g id="Grey_Red_Logo" data-name="Grey Red Logo" transform="translate(0 0.006)">
    <path id="Path_1" data-name="Path 1" d="M34.3,140.607V30.331H0V.315H98.464v30.1H64.3V140.691h-30Z" transform="translate(0 1.741)" fill="#d7d1b9"/>
    <path id="Path_2" data-name="Path 2" d="M11.891,43.452V18.207H37.136V43.452Z" transform="translate(64.569 98.897)" fill="#d7d1b9"/>
    <path id="Path_3" data-name="Path 3" d="M67.092.315V140.607h-30.1V.315Z" transform="translate(200.876 1.741)" fill="#d7d1b9"/>
    <path id="Path_4" data-name="Path 4" d="M174.449,96.453a73.5,73.5,0,0,1-14,24.756,66.666,66.666,0,0,1-22.087,16.911,60.818,60.818,0,0,1-27.1,6.231,62.1,62.1,0,0,1-33.578-9.709,70.195,70.195,0,0,1-24.6-26.363,72.389,72.389,0,0,1-9.221-36.086,74.792,74.792,0,0,1,9-36.086A69.929,69.929,0,0,1,77.521,9.646,62.755,62.755,0,0,1,111.344,0a60.815,60.815,0,0,1,26.942,6.147A68.234,68.234,0,0,1,160.618,23.3a70.913,70.913,0,0,1,14,25.077H141.771a43.138,43.138,0,0,0-13.432-13.349,32.384,32.384,0,0,0-35.6.81,40.238,40.238,0,0,0-13.5,15.374A44.324,44.324,0,0,0,74.223,72.25a44.9,44.9,0,0,0,5.015,20.872,41.261,41.261,0,0,0,13.593,15.432,32.449,32.449,0,0,0,35.366,1.132,41.255,41.255,0,0,0,13.349-13.1h32.929Z" transform="translate(238.177 0.03)" fill="#d7d1b9"/>
    <path id="Path_5" data-name="Path 5" d="M162.8,140.607H124.86L70.8,70.461,124.847.315h37.938L108.656,70.461Z" transform="translate(384.462 1.741)" fill="#d7d1b9"/>
    <rect id="Rectangle_1" data-name="Rectangle 1" width="30.26" height="140.292" transform="translate(425.004 2.056)" fill="#d7d1b9"/>
    <path id="Path_6" data-name="Path 6" d="M163.724,67.187A46.746,46.746,0,0,1,179.5,82.4a36.791,36.791,0,0,1,5.742,19.663,36.271,36.271,0,0,1-6.713,20.956,47.531,47.531,0,0,1-18.364,15.535,57.064,57.064,0,0,1-25.245,5.826,58.317,58.317,0,0,1-23.38-4.694,43.422,43.422,0,0,1-18.364-15.13,46.938,46.938,0,0,1-8.012-28.884h31.88a17.905,17.905,0,0,0,5.337,13.915,17.647,17.647,0,0,0,12.539,4.938,19.86,19.86,0,0,0,12.134-3.723,10.673,10.673,0,0,0,5.1-8.739,11.4,11.4,0,0,0-6.392-9.645L109.679,70.981a42.665,42.665,0,0,1-14.4-14A33.217,33.217,0,0,1,90.1,39.1a34.114,34.114,0,0,1,6.147-19.663A41.974,41.974,0,0,1,113.158,5.194,52.226,52.226,0,0,1,136.216.018,48.243,48.243,0,0,1,160.9,5.927,38.965,38.965,0,0,1,176.328,22a46.249,46.249,0,0,1,5.016,21.277h-30.26a12.524,12.524,0,0,0-4.045-9.549A15.231,15.231,0,0,0,136.2,30.008a15.786,15.786,0,0,0-9.144,2.572,7.54,7.54,0,0,0-3.723,6.392,7.648,7.648,0,0,0,4.45,6.636Z" transform="translate(462.092 0)" fill="#d7d1b9"/>
    <path id="Path_7" data-name="Path 7" d="M51.141,87.867h-3.4v52.669H17.7V.327H68.27A40.015,40.015,0,0,1,84.776,3.806,46.689,46.689,0,0,1,99.1,13.921a45.479,45.479,0,0,1,9.3,14.641,44.59,44.59,0,0,1,3.318,16.583,41.868,41.868,0,0,1-6.475,22.576A47.121,47.121,0,0,1,85.419,83.256l44.258,57.279H91.811ZM68.3,57.607a13.071,13.071,0,0,0,13.51-12.622c.013-.347.013-.7-.006-1.048A13.037,13.037,0,0,0,69.318,30.35c-.341-.019-.682-.019-1.022-.006H47.72V57.607Z" transform="translate(96.135 1.806)" fill="#d7d1b9"/>
  </g>
</svg>
